PathFileType	4	(X/Y/Z)	/Users/visionmauri/2_8_1_f_Sports2D/2_8_1_f_Sports2D_px_person00.trc
DataRate	CameraRate	NumFrames	NumMarkers	Units	OrigDataRate	OrigDataStartFrame	OrigNumFrames
30.0	30.0	11	22	m	30.0	218	350
Frame#	Time	Hip			RHip			RKnee			RAnkle			RBigToe			RSmallToe			RHeel			LHip			LKnee			LAnkle			LBigToe			LSmallToe			LHeel			Neck			Head			Nose			RShoulder			RElbow			RWrist			LShoulder			LElbow			LWrist			
		X1	Y1	Z1	X2	Y2	Z2	X3	Y3	Z3	X4	Y4	Z4	X5	Y5	Z5	X6	Y6	Z6	X7	Y7	Z7	X8	Y8	Z8	X9	Y9	Z9	X10	Y10	Z10	X11	Y11	Z11	X12	Y12	Z12	X13	Y13	Z13	X14	Y14	Z14	X15	Y15	Z15	X16	Y16	Z16	X17	Y17	Z17	X18	Y18	Z18	X19	Y19	Z19	X20	Y20	Z20	X21	Y21	Z21	X22	Y22	Z22
218	7.287488061127029	557.031758990233	765.240143313523	0.0	505.58463682513616	781.8491964365207	0.0	503.98529518114896	1007.1480734069114	0.0	523.6178748845412	1219.1591820709857	0.0	525.440358340563	1307.7479222251145	0.0	492.768846566833	1298.2589160132043	0.0	537.5190110161923	1244.740666450726	0.0	614.9273654510085	776.6014881595031	0.0	629.9978001002781	979.0565109442283	0.0	630.9451724801023	1158.3670260523816	0.0	624.6954884653173	1254.8207846635416	0.0	656.9525940327185	1236.8774131854677	0.0	620.7378759123644	1171.641091502396	0.0	534.3822365072829	433.4571331389926	0.0	533.4281963174643	280.7324351048724	0.0	542.2988502197607	377.2860671386674	0.0	428.2045456968065	481.3996523450531	0.0	392.32099337131325	619.2064457828794	0.0	390.88058713566846	739.7479692418416	0.0	637.6980538780126	476.17994116202743	0.0	696.8791889466615	616.2878120121084	0.0	750.4584624234808	740.4162622042973	0.0
219	7.320916905444126	555.9746306926975	764.799051544025	0.0	504.71919611392417	781.1677926614701	0.0	503.1045630718991	1007.5801828375735	0.0	523.6974946797053	1217.6400197234257	0.0	525.788382132018	1308.195013892339	0.0	492.78102432018505	1298.0659363403524	0.0	537.144935448593	1243.0532674540584	0.0	613.889992283471	775.9999072460512	0.0	630.1462615770289	979.2198654772981	0.0	631.5662415099953	1158.0951988609852	0.0	625.6756972510742	1255.3962522882643	0.0	658.9040078600875	1236.469652354372	0.0	620.8909692931582	1170.2661060177415	0.0	531.0885206299491	434.8231117298094	0.0	530.81434085618	280.50179124795693	0.0	539.509442571011	376.4670848672264	0.0	425.5474508934406	481.64256675820405	0.0	390.191173518137	619.3636385998288	0.0	390.3569013625512	739.9550236354605	0.0	634.3034805238866	476.28615413334234	0.0	695.0710026333314	615.8032615919027	0.0	748.7041663781998	740.3840429339689	0.0
220	7.354345749761222	555.3909308596121	763.5252439973895	0.0	504.5936857121746	780.5779899250406	0.0	502.7198600979805	1007.6317542198643	0.0	523.5597422615414	1215.569778229519	0.0	526.180764976531	1307.5895339831204	0.0	492.61294144457577	1297.8709494594796	0.0	536.6406814364208	1240.7103561937452	0.0	613.4065312582654	774.0658839419236	0.0	630.588614207407	979.508076856676	0.0	631.5422542443607	1157.6579700911395	0.0	626.2874240103558	1256.445515698614	0.0	659.6665159234412	1237.3897133128858	0.0	621.4131717426883	1172.5715207592627	0.0	528.3348262975034	434.5236504409241	0.0	528.2761095412202	279.0121695110363	0.0	536.9274280023117	375.47765065496463	0.0	423.1768314164809	481.5870340477325	0.0	388.4949475944465	619.1014358509829	0.0	389.9514236145074	739.5344891869128	0.0	631.4655605594891	474.91862637533563	0.0	693.2656640673927	615.8462835213019	0.0	746.9218826399897	739.375137482615	0.0
221	7.387774594078319	555.3135240484308	761.6848584826896	0.0	504.9577622892081	781.2651353553075	0.0	502.74635875791745	1008.5763875385369	0.0	523.2019940061058	1215.226509028759	0.0	525.8392314616707	1307.2521789036289	0.0	492.5078692453107	1298.392401893934	0.0	535.9377156930765	1239.4926501939356	0.0	613.5235623281845	772.8555216263371	0.0	630.9850561105665	980.0623173366597	0.0	631.2588776949857	1157.3921862680766	0.0	626.5349397299105	1258.8588615261187	0.0	659.5225835400197	1240.737677830164	0.0	622.1393883174653	1175.682838973952	0.0	526.3262240060836	432.4943535170755	0.0	526.4544169947767	278.6303669675058	0.0	536.6759640919224	375.320251893971	0.0	420.9154073834549	481.0602134350383	0.0	388.5047887733586	617.970469396228	0.0	389.5375200383952	738.9058863160473	0.0	629.8990458847887	472.5401762414089	0.0	691.2200925769487	616.1400580497012	0.0	744.8857474994139	738.4135882955317	0.0
222	7.421203438395415	555.1576973206701	760.5014523654207	0.0	504.9245696506955	782.3053904569965	0.0	502.98235820375413	1010.3005208704867	0.0	522.694026491488	1216.9525363714404	0.0	524.9423891768431	1307.6025653484378	0.0	492.07913388396275	1299.7105863582133	0.0	535.5495316454144	1240.6473317434295	0.0	613.7379272977967	772.6693170519266	0.0	631.0590358891577	979.6073182165933	0.0	632.1278336259331	1160.1535130367845	0.0	627.4091581793813	1264.112198913214	0.0	660.5091906690462	1247.8824484832182	0.0	622.9118277581117	1180.4314239555265	0.0	524.6696794921112	430.8633625496817	0.0	525.6465798000406	280.0661073032908	0.0	538.380557985311	376.2015877987107	0.0	419.1241738928783	479.9042131672393	0.0	389.8689198088061	616.4835159307811	0.0	389.0696513112546	739.1423602480431	0.0	629.0108709807953	470.5136387037329	0.0	689.4273067467692	616.4134435917516	0.0	743.836917303545	738.3200799627195	0.0
223	7.454632282712512	554.8101206913477	760.3515813999986	0.0	504.1153260421395	781.5446539852451	0.0	502.8615147141162	1011.9132009801542	0.0	522.4183282296816	1218.9026373959803	0.0	524.3489029896707	1308.0032012583079	0.0	491.3143044090815	1300.9313892153928	0.0	536.085023006455	1243.0316993486103	0.0	614.0112357315558	771.5000952311726	0.0	631.6193854479991	978.4023106116588	0.0	634.6488059474373	1167.4859818785587	0.0	629.6678710867251	1272.7190756294895	0.0	663.6776680652325	1258.5295787115874	0.0	623.5636684768692	1189.6019562094043	0.0	523.272739203418	430.80559038869217	0.0	525.5321515760514	281.47076331207035	0.0	540.5290819778452	377.2484468126627	0.0	417.8722541378726	478.2244684270644	0.0	391.2421930594875	615.709212882188	0.0	388.6654721702506	740.7237248859653	0.0	627.8917370633251	469.23492965663894	0.0	687.6545407047313	615.8783178183212	0.0	743.8636381340602	738.6428641783701	0.0
224	7.488061127029608	554.9248322603495	760.5160221642208	0.0	503.4617220678714	779.5251235133742	0.0	502.32113951230536	1013.2950449961313	0.0	522.7606733121243	1219.6892107316132	0.0	524.1703725042977	1308.5007432032926	0.0	490.61705197098985	1301.187160779468	0.0	537.0484303599552	1244.7307973724323	0.0	614.3547994279287	769.7460321859846	0.0	633.1966892376873	979.5724872745659	0.0	637.4630499957896	1178.5650400931797	0.0	632.6758448912918	1283.6071744072497	0.0	667.3933520540484	1270.170717263194	0.0	624.7641294352367	1203.061699333336	0.0	522.5997564753148	431.65177073359945	0.0	525.704354680013	281.7963327469326	0.0	542.4303669610521	377.9592845687444	0.0	416.88522853620935	476.85645946266465	0.0	391.50433941279823	615.5130321732164	0.0	388.6297341070818	742.3856384875994	0.0	626.7916037734548	468.6384671260124	0.0	685.315505004825	614.0617672489683	0.0	743.3192623261963	738.6980431248528	0.0
225	7.521489971346705	555.1267913818225	760.5509436035424	0.0	503.40115123963295	778.5927701451834	0.0	502.0665224421873	1014.5279096004363	0.0	523.8095341558663	1219.6263913688897	0.0	523.5819297529943	1309.321231473653	0.0	490.158281711283	1300.6370755360847	0.0	537.6577849615558	1245.3177610221792	0.0	614.2338538579044	769.8833896563034	0.0	634.8340970583915	984.0851029388089	0.0	639.4378003851809	1191.031483708667	0.0	635.676622322919	1295.442131726857	0.0	669.9946903198645	1281.0850768207863	0.0	627.1808887185426	1217.3669155184166	0.0	522.6632286764878	432.4334132956571	0.0	526.1279342763033	281.6361544078288	0.0	543.4112599796281	378.48661841419084	0.0	416.2899675728059	476.6709907642393	0.0	390.43858702031383	615.048160673313	0.0	388.8111923259093	742.6429887734453	0.0	626.4069888970251	468.8034508273693	0.0	683.1900589312937	612.2012167267333	0.0	741.6601779625489	738.5021094243384	0.0
226	7.554918815663801	554.4115835406075	760.4433876736036	0.0	502.90921962700867	779.0747429222089	0.0	502.426172269759	1015.0487203981805	0.0	525.21591517363	1219.1819006876876	0.0	522.2384865560351	1310.023751414713	0.0	489.81958810006864	1300.0429249815102	0.0	537.8923938253049	1245.496584340498	0.0	613.4100173622347	771.7899151486173	0.0	635.4462904988717	988.4760478299985	0.0	641.4937353440769	1201.590789649083	0.0	638.7246893413202	1306.8181829803145	0.0	672.6177855212538	1291.6003805764906	0.0	629.5664074835249	1228.395373650441	0.0	522.956160746652	432.6608545426853	0.0	527.1650445203356	281.43115374624574	0.0	543.2713806769943	378.73101219758047	0.0	416.22552596163996	477.3347941150276	0.0	389.0876708310579	614.3154497384365	0.0	388.3852575429377	741.9026349243325	0.0	626.5291599080323	469.19544410107625	0.0	682.4090238606791	611.8748954906239	0.0	740.1092165879384	738.4620242093262	0.0
227	7.588347659980898	553.3183692271951	760.11803348076	0.0	501.57887361552446	779.4886251293431	0.0	503.06399544805225	1014.54929700332	0.0	526.3383022407896	1218.4652214351472	0.0	520.8355993167985	1309.7605928967912	0.0	489.3588336023403	1299.413868516211	0.0	537.9662994471287	1245.7329004366761	0.0	612.5517954211774	773.0897165143223	0.0	635.383346823084	990.1053135818362	0.0	644.4967700653381	1208.7531363777287	0.0	641.4843930531451	1315.6418452706696	0.0	676.2405940456771	1301.248119404517	0.0	630.976962697924	1235.1731727597341	0.0	523.1970656380959	432.5253043345761	0.0	528.7027224723496	281.1056211979773	0.0	543.3990431004056	378.6434195516947	0.0	416.2818165508731	477.77619359155347	0.0	388.48536767610267	613.6823983179473	0.0	387.03660519566955	741.4248231033836	0.0	626.5093901147641	469.1678314896723	0.0	682.5034841004302	612.6533380481791	0.0	739.4209952708989	738.756331961084	0.0
228	7.621776504297994	552.9759061874593	759.8652965996266	0.0	500.5656634706842	779.2185732934656	0.0	503.70917724581204	1013.516357555449	0.0	526.8568234817401	1217.8469631836215	0.0	520.1520136312987	1308.0820803021238	0.0	488.87669677718253	1297.8399367250313	0.0	538.4550508783938	1245.9176742867967	0.0	612.2852049240197	772.9487489883708	0.0	635.3594555361706	989.8873423992067	0.0	647.4389221340916	1214.1632627641852	0.0	643.6976486570944	1320.95432038814	0.0	679.349115958076	1308.3763523373725	0.0	633.040057331978	1240.5658639076053	0.0	523.3310068412092	432.49814500777353	0.0	529.853312514214	280.96413645014474	0.0	545.3441347793121	378.5569597373952	0.0	416.0616067569	477.53545383842214	0.0	388.0377197925293	613.3533158187645	0.0	385.3300570561128	741.5508722180266	0.0	626.3197723115006	469.1598113921795	0.0	682.4679308238193	612.9912537114039	0.0	739.0722008827527	738.9058718257559	0.0
